<svg xmlns="http://www.w3.org/2000/svg" width="512" height="512" viewBox="0 0 512 512"><mask id="a"><circle cx="256" cy="256" r="256" fill="#fff"/></mask><g mask="url(#a)"><path fill="#eee" d="M0 0h512v512H0Z"/><path fill="#333" d="M131.4 194.7V236h-15.8v-26.7H97.8q-6.3 0-10.8 2.3a15 15 0 0 0-6.7 6.4 22 22 0 0 0-2.3 10.5q0 6 2.3 10.3 2.2 3.9 6.7 6 4.5 2 10.8 2H173v-52.2h-13V236h-15.8v-41.4zm52.9 0V247H197v-52.4zm55.3 0V236h-11v-31h-12.8v31h-9.3v11h45.9v-52.3zm24.3 0V247h12.8v-52.4zm77.8 0V236H326v-26.7h-17.8q-6.3 0-10.8 2.3a15 15 0 0 0-6.7 6.4 22 22 0 0 0-2.3 10.5q0 6 2.3 10.3 2.2 3.9 6.7 6 4.5 2 10.8 2h46.5v-52.2zm24.2 0V247h12.8v-52.4zm55.3 0V236h-11v-31h-12.8v31H388v11h46v-52.3zM97.8 220.3h5V236h-5q-2.5 0-4-.3-1.5-.5-2.2-2a13 13 0 0 1-.8-5.1q0-3.7.8-5.4 1-1.8 2.5-2.3 1.5-.7 3.7-.7m210.3 0h5v15.9h-5q-2.5 0-4-.4-1.6-.5-2.2-2a13 13 0 0 1-.8-5.1q0-3.7.8-5.4 1-1.8 2.5-2.3 1.6-.7 3.7-.7m-193.3 47.5V296h-11v-18.5H91.7q-4.5 0-7.4 1.6-3 1.5-4.6 4.5t-1.6 7.1 1.6 7q1.5 3 4.6 4.3 3 1.4 7.4 1.4h51.7v-36h-8.8V296h-11v-28.4zm36.3 0v36h8.8v-36zm39.7 0v35.7a6 6 0 0 1-.6 2.8q-.6 1-2 2-1.6.5-4 .6a9 9 0 0 1-4.2-.7q-1.8-.8-2.4-2-1-1.3-1-3l.3-2.9 1.5-10.8-8.7-1-1.2 8.3-.6 6.4q0 3.7 2 6.7a14 14 0 0 0 5.9 4.8q3.5 1.7 8.3 1.7 4.5 0 8-1.6 3.6-1.6 5.5-4.6 2-2.7 2-6.7v-35.8zm159.5 10a36 36 0 0 0-10 1.3 57 57 0 0 0-1.3 17h-11v-2a20 20 0 0 0-2-9.2q-1.7-3.6-5.3-5.3a20 20 0 0 0-8.7-1.8h-4.2v7.5h4.2q2.7 0 4.3.8t2.2 2.6.7 5.4v2h-12.7v7.6H434v-12.8q0-5-1.6-7.8a8 8 0 0 0-4.7-4 19 19 0 0 0-8-1.4 36 36 0 0 0-10 1.4 40 40 0 0 0-1.4 7.4 57 57 0 0 0 0 9.6h-11v-4.8q0-4.2-2-7.2t-5.4-4.6a18 18 0 0 0-8-1.7q-2 0-4.1.4l-4.3.8.7 7a48 48 0 0 1 6.7-.6q3.9 0 6 1.5 1.6 1.5 1.7 4.4v5h-24v-5.4q0-5-1.5-7.8-1.7-3-4.8-4-3-1.4-8-1.4m-131.7.1a16 16 0 0 0-7.4 1.6q-3 1.4-4.6 4.4T205 291t1.6 7q1.6 3 4.6 4.3 3 1.4 7.4 1.4h3.5v1.6q0 2.4-1.5 3.4-1.5 1.2-4.7 1.2l-3-.2q-1.8.1-4.3-.4l-1.2 7q4.2 1 8.5 1 4.5 0 7.8-1.4 3.3-1.5 5.3-4.2a11 11 0 0 0 1.9-6.4v-1.6h22.9a15 15 0 0 0 7.9-2q1 .6 2.2 1 2.2 1 4.7 1h13.9v-14l-.3-3.3-1.3-8.6-8.7 1.3q.9 5.3 1.4 10.5v6.6h-5l-2-.4-.8-.5q.6-2.7.7-6.2v-8.6h-8.8v8.6q0 3-.4 4.6t-1 2a5 5 0 0 1-2.5.5h-3v-13h-9v13H231v-18.5zm73.8 0v26.6q0 2.8-1 4-1 1.5-2.8 1.5h-2.8l-.2 7.3 3 .2q3.9 0 6.7-1.7t4.3-4.6q1.5-2.8 1.6-6.7v-26.7zm58 7.4q2.1 0 3.3.5a3 3 0 0 1 1.7 1.7q.3 1.4.4 3.4v5.4h-8a71 71 0 0 1 0-8.6l.2-2.3zm69.3 0q2.1 0 3.4.5t1.6 1.7q.5 1.4.5 3.4v5.4h-8a71 71 0 0 1-.1-8.6l.2-2.3zm-328.1.1H95v11h-3.4q-1.7 0-2.7-.4-1-.3-1.6-1.4a9 9 0 0 1-.5-3.5q0-2.6.6-3.7a3 3 0 0 1 1.6-1.6 8 8 0 0 1 2.5-.4m127 0h3.5v11h-3.5q-1.7 0-2.7-.4-1-.3-1.6-1.4a9 9 0 0 1-.5-3.5q0-2.6.6-3.7a3 3 0 0 1 1.7-1.6 8 8 0 0 1 2.5-.4"/></g></svg>