<svg xmlns="http://www.w3.org/2000/svg" width="512" height="512" viewBox="0 0 512 512"><mask id="a"><circle cx="256" cy="256" r="256" fill="#fff"/></mask><g mask="url(#a)"><path fill="#338af3" d="M0 0h512v512H0Z"/><path fill="#ffda44" d="M160 64v48h192V64a16 16 0 0 0-16 16h-16a16 16 0 0 0-32 0h-16a16 16 0 0 0-32 0h-16a16 16 0 0 0-32 0h-16a16 16 0 0 0-16-16m39 73-62 62 1 1h-1v113l62 62h114l62-62V200h-1l1-1-62-62z"/><path fill="#d80027" d="m256 205 51 51-51 51-51-51z"/><path fill="#338af3" d="m199 149-50 50 50 51 51-51zm131 17-12 33 12 34 34-34zm-74 39v102l51-51zm74 74-30 21-21 30 34 34 51-51z"/><path fill="#0052b4" d="m296 166-34 33 34 34 11-34z"/><path fill="#6da544" d="m205 143 17 17 40 6 28-6 17-17zm108 6-17 17v67l17 17 17-17v-67zm-170 56v102l17-17 6-40-6-28zm226 0-17 17-5 40 5 28 17 17zM250 347l-28 5-17 17h102l-17-17z"/><path fill="#eee" d="m222 160 17 17 17 6 17-6 17-17zm-62 62v68l17-17 6-17-6-17zm192 0-17 17-6 17 6 17 17 17zm-96 107-17 6-17 17h68l-17-17z"/><path fill="#d80027" d="m239 177 17 17 17-17zm-62 62v34l17-17zm158 0-17 17 17 17zm-136 23-50 50 50 51 51-50zm114 0-51 51 17 16 51-50zm-57 56-17 17h34z"/><path fill="#eee" d="M280 244a8 8 0 0 1-8 8 8 8 0 0 1-8 8v8h-4l4 8-8 8-8-8 4-8h-4v-8a8 8 0 0 1-8-8 8 8 0 0 1-8-8h16a8 8 0 1 1 16 0z"/></g></svg>