<svg xmlns="http://www.w3.org/2000/svg" width="512" height="512" viewBox="0 0 512 512"><mask id="a"><circle cx="256" cy="256" r="256" fill="#fff"/></mask><g mask="url(#a)"><path fill="#eee" d="m0 167 256-32 256 32v178l-256 32L0 345Z"/><path fill="#496e2d" d="M0 0h512v167H0Z"/><path fill="#d80027" d="M0 345h512v167H0Z"/><path fill="#333" d="m256 200.3 13.8 42.6h44.7L278.4 269l13.8 42.6-36.2-26.3-36.2 26.3 13.8-42.6-36.1-26.2h44.7z"/><path fill="#eee" d="M173 67.4V95h-10.6V77.2h-11.9q-4.2 0-7.2 1.6a10 10 0 0 0-4.5 4.2q-1.6 3.3-1.5 7 0 4 1.5 6.9 1.6 2.7 4.5 4 3 1.5 7.2 1.4h50.1V67.4H192V95h-10.6V67.4Zm35.2 0v34.9h8.5V67.4Zm36.8 0V95h-7.3V74.4h-8.5V95H223v7.3h30.6V67.4Zm16.2 0v34.9h8.6V67.4Zm51.9 0V95h-10.5V77.2h-11.8q-4.2 0-7.2 1.6A10 10 0 0 0 279 83q-1.6 3.3-1.5 7 0 4 1.5 6.9 1.5 2.7 4.5 4 3 1.5 7.2 1.4h31V67.4Zm16.1 0v34.9h8.6V67.4Zm36.9 0V95h-7.3V74.4h-8.6V95H344v7.3h30.7V67.4ZM150.5 84.5h3.3V95h-3.3q-1.6 0-2.7-.2-1-.4-1.4-1.4-.6-1.5-.6-3.4a9 9 0 0 1 .6-3.6A3 3 0 0 1 148 85q1-.4 2.5-.4m140.2 0h3.3V95h-3.3q-1.6 0-2.7-.2-1-.4-1.4-1.4-.6-1.5-.6-3.4a9 9 0 0 1 .6-3.6 3 3 0 0 1 1.6-1.5 7 7 0 0 1 2.5-.4m-128.9 31.6v19h-7.2v-12.3h-8.2q-3 0-5 1a7 7 0 0 0-3 3q-1 2-1 4.8a9 9 0 0 0 1 4.6 6 6 0 0 0 3 2.9q2 1 5 1h34.4v-24H175v19h-7.3v-19zm24.2 0v24h6v-24zm26.5 0V140a4 4 0 0 1-.4 1.8q-.4.8-1.3 1.3t-2.7.5a6 6 0 0 1-2.8-.5q-1.1-.6-1.6-1.3-.6-.9-.6-2.1l.1-1.9 1-7.2-5.8-.7-.8 5.6-.4 4.3q0 2.4 1.4 4.4 1.5 2.1 4 3.2 2.3 1.2 5.4 1.2 3 0 5.4-1.1a8 8 0 0 0 3.6-3 8 8 0 0 0 1.4-4.5v-24zm106.3 6.7a24 24 0 0 0-6.6.9q-.8 2.4-.9 5a38 38 0 0 0 0 6.3H304v-1.3q0-3.2-1.3-6.1-1.2-2.4-3.6-3.6-2.7-1.2-5.8-1.2h-2.8v5h2.8q1.8 0 2.9.6t1.4 1.7.5 3.6v1.3h-8.5v5.1h85v-8.5q0-3.4-1-5.2a5 5 0 0 0-3.2-2.8q-2.1-1-5.3-.8a24 24 0 0 0-6.7.9q-.6 2.4-1 5a38 38 0 0 0 0 6.3h-7.2v-3.2q0-2.7-1.3-4.8a9 9 0 0 0-3.7-3 12 12 0 0 0-5.2-1.2q-1.5 0-2.8.3l-2.9.5.5 4.7 4.4-.4q2.7 0 4 1t1.2 3v3.2h-16v-3.5q0-3.4-1-5.2a6 6 0 0 0-3.2-2.8q-2-1-5.4-.8m-87.8 0q-2.8 0-4.9 1.1a7 7 0 0 0-3 3q-1.2 2-1.1 4.7a9 9 0 0 0 1 4.7 7 7 0 0 0 3.1 2.9q2 .9 5 .9h2.3v1q0 1.5-1 2.3-1 .9-3.2.8l-2-.1q-1.2 0-2.8-.3l-.8 4.7q2.7.6 5.6.7 3 0 5.2-1a8 8 0 0 0 3.6-2.8 7 7 0 0 0 1.2-4.2V140h15.3a10 10 0 0 0 5.3-1.3q.6.4 1.4.6 1.5.7 3.2.7h9.2v-9.3l-.2-2.2-.8-5.8-5.8.9q.6 3.5.9 7v4.4h-3.3l-1.3-.3-.6-.3q.5-1.8.5-4.1v-5.8h-6v5.8q0 2-.3 3t-.6 1.4q-.8.3-1.7.3h-2v-8.7h-6v8.7h-7.2v-12.3zm49.2 0v17.8q0 1.8-.6 2.6-.7 1-1.9 1h-1.9l-.1 4.9 2 .1q2.6 0 4.5-1.1a8 8 0 0 0 2.8-3q1-2 1.1-4.5v-17.8zm38.7 5q1.5 0 2.2.3.9.3 1.1 1.1.3 1 .3 2.3v3.6h-5.3q-.3-3 0-5.7l.1-1.6zm46.2 0q1.4 0 2.3.3.7.3 1 1.1.3 1 .4 2.3v3.6h-5.4v-7.3zm-218.7 0h2.2v7.3h-2.2q-1.2 0-1.8-.2t-1-1a6 6 0 0 1-.4-2.3q0-1.7.4-2.4a2 2 0 0 1 1-1.1q.8-.3 1.7-.3m84.7 0h2.3v7.3H231l-1.8-.2q-.7-.3-1-1a6 6 0 0 1-.4-2.3q0-1.7.4-2.4a2 2 0 0 1 1.1-1.1q.8-.3 1.7-.3"/></g></svg>