<svg xmlns="http://www.w3.org/2000/svg" viewBox="0 5 36 26"><path d="M0 9a4 4 0 0 1 4-4h28a4 4 0 0 1 4 4v18a4 4 0 0 1-4 4H4a4 4 0 0 1-4-4V9Z" fill="#EEE"/><path d="M17.848 25.922a1.625 1.625 0 1 0 0-3.25 1.625 1.625 0 0 0 0 3.25ZM21.372 11.88c-.792-.69-1.9-1.03-3.326-1.03-1.417 0-2.534.366-3.352 1.087a3.805 3.805 0 0 0-1.234 2.813h-.01v.65h2.925l.005-.457a1.787 1.787 0 0 1 .472-1.26c.295-.31.696-.456 1.194-.456 1.05 0 1.574.558 1.574 1.696 0 .375-.102.736-.305 1.071-.34.496-.748.94-1.213 1.32a4.59 4.59 0 0 0-1.26 1.64c-.228.56-.345 1.357-.345 2.296h2.59l.04-.665a2.742 2.742 0 0 1 .879-1.722l.822-.772a6.673 6.673 0 0 0 1.341-1.686 3.53 3.53 0 0 0 .386-1.614c-.005-1.255-.396-2.22-1.183-2.91Z" fill="#ACABB1"/></svg>