<svg xmlns="http://www.w3.org/2000/svg" viewBox="0 0 36 26" fill="none"><g clip-path="url(#a)"><path fill="#EEE" d="M0 8h36v10H0V8Z"/><path fill="#003893" d="M32 0H4a4 4 0 0 0-4 4v4h36V4a4 4 0 0 0-4-4Z"/><path fill="#D00" d="M32 26H4a4 4 0 0 1-4-4v-4h36v4a4 4 0 0 1-4 4Z"/><path fill="#FCD115" fill-rule="evenodd" d="m18 6 1.653 5.086H25l-4.326 3.143 1.652 5.086L18 16.172l-4.326 3.143 1.652-5.086L11 11.086h5.347L18 6Z" clip-rule="evenodd"/><path fill="#DE0000" fill-rule="evenodd" d="m18 7 1.416 4.36H24l-3.708 2.694 1.416 4.359L18 15.719l-3.708 2.694 1.416-4.36L12 11.36h4.584L18 7Z" clip-rule="evenodd"/></g><defs><clipPath id="a"><path fill="#fff" d="M0 0h36v26H0z"/></clipPath></defs></svg>