<svg xmlns="http://www.w3.org/2000/svg" viewBox="0 5 36 26"><path fill="#FCDD09" d="M36 27c0 2.209-1.791 4-4 4H4c-2.209 0-4-1.791-4-4V9c0-2.209 1.791-4 4-4h28c2.209 0 4 1.791 4 4v18z"/><path fill="#DA121A" d="m 0 25.222 l 36 0 l 0 1.778 a 4 4 0 0 1 -0.157 1.111 l -35.686 0 a 4 4 0 0 1 -0.157 -1.111" /><path fill="#DA121A" d="m 0,19.444 36,0 0,2.889 -36,0 0,-2.889 z" /><path fill="#DA121A" d="m 0,13.667 36,0 0,2.889 -36,0 0,-2.889 z" /><path fill="#DA121A" d="m 0.157 7.889 l 35.686 0 a 4 4 0 0 1 0.157 1.111 l 0 1.778 l -36 0 l 0 -1.778 a 4 4 0 0 1 0.157 -1.111" /></svg>