<svg xmlns="http://www.w3.org/2000/svg" viewBox="0 0 36 36"><path fill="#D52B1E" d="M36 10v16a5 5 0 0 1-.29 1.69c-.48 1.33-1.5 2.4-2.8 2.93-.59.25-1.23.38-1.91.38H5c-.78 0-1.52-.18-2.17-.5a5.016 5.016 0 0 1-2.62-3.06C.07 26.98 0 26.5 0 26V10a5 5 0 0 1 .29-1.69c.48-1.33 1.5-2.4 2.8-2.93A4.86 4.86 0 0 1 5 5h26c.78 0 1.52.18 2.17.5 1.25.6 2.21 1.71 2.62 3.06.14.46.21.94.21 1.44Z"/><path fill="#009B48" d="m21.58 18.02 14.13 9.67c-.48 1.33-1.5 2.4-2.8 2.93L17.98 20.41 2.83 30.5a5.016 5.016 0 0 1-2.62-3.06l14.21-9.46L.29 8.31c.48-1.33 1.5-2.4 2.8-2.93l14.93 10.21L33.17 5.5c1.25.6 2.21 1.71 2.62 3.06l-14.21 9.46Z"/><path fill="#fff" d="M36 16H20V5h-4v11H0v4h16v11h4V20h16v-4Z"/></svg>