<svg xmlns="http://www.w3.org/2000/svg" viewBox="0 5 36 26"><path fill="#C00" d="M32 5H4a4 4 0 0 0-4 4v4.5h36V9a4 4 0 0 0-4-4Z"/><path fill="#060" d="M0 27a4 4 0 0 0 4 4h28a4 4 0 0 0 4-4v-4.5H0V27Z"/><path fill="#EEE" d="M0 13.5h36v9H0v-9Z"/><path fill="#FEBD11" fill-rule="evenodd" d="m18 12 .448 3.05 1.325-2.782-.468 3.048 2.084-2.268-1.343 2.774 2.658-1.55-2.099 2.253 2.996-.696-2.668 1.533 3.067.22-3 .677 2.866 1.117-3.066-.24 2.41 1.915-2.858-1.136 1.74 2.542-2.397-1.93.916 2.943-1.724-2.553.01 3.083L18 21.05 17.103 24l.01-3.084-1.724 2.554.916-2.944-2.397 1.93 1.74-2.541-2.859 1.136 2.41-1.915-3.065.24L15 18.26l-3-.676 3.067-.22-2.668-1.534 2.996.696-2.1-2.253 2.659 1.55-1.343-2.774 2.084 2.268-.468-3.048 1.325 2.783L18 12Z" clip-rule="evenodd"/></svg>