<?xml version="1.0" encoding="utf-8"?>
<svg xmlns="http://www.w3.org/2000/svg" viewBox="0 5 36 26">
  <path fill="#EEE" d="M0 13h36v10H0z"/>
  <path d="M32 5H4C1.791 5 0 6.791 0 9v4h36V9c0-2.209-1.791-4-4-4z" style="fill: rgb(0, 122, 61);"/>
  <path d="M32 31H4c-2.209 0-4-1.791-4-4v-4h36v4c0 2.209-1.791 4-4 4z" style=""/>
  <path d="M 8.405 20.333 L 10.115 15.056 L 11.833 20.333 L 7.345 17.071 L 12.894 17.071 M 24.237 20.333 L 25.947 15.056 L 27.665 20.333 L 23.177 17.071 L 28.725 17.071 M 16.321 20.333 L 18.039 15.056 L 19.749 20.333 L 15.261 17.071 L 20.809 17.071" fill="#ce1126" style=""/>
</svg>