<svg xmlns="http://www.w3.org/2000/svg" viewBox="0 0 36 36"><path d="M19 31H5.429C2.43 31 0 29.209 0 27V9c0-2.209 2.43-4 5.429-4H19v26Z" fill="#FDDF00"/><path d="M36 27c0 2.209-2.48 4-5.538 4H18V5h12.462C33.52 5 36 6.791 36 9v18Z" fill="#EEE"/><path d="m31.156 14.234.33-.609-.673.305.343.304Z" fill="#A1A1A1"/><path d="M31.186 13.682a.247.247 0 1 0 .494.002.247.247 0 0 0-.494-.002Zm-.576.145c-.116.115-.057.362.131.549.188.189.434.247.549.131.116-.115.058-.361-.131-.549-.186-.188-.433-.248-.549-.131Z" fill="#A1A1A1"/><path d="M24.901 19.562c.379.359.701-.105 1.306-.641.553-.49 4.188-3.87 4.578-4.214.391-.344.028-.864-.425-.442s-4.801 4.062-5.127 4.359c-.327.298-.752.54-.332.938Z" fill="#CB9C2B"/><path d="m30.688 14.558.437.488-.219.188.219.187.219-.187.312.344v.343l-.609.517-.359-.235v-.282h-.297v.267l.156.015.141.156.015.36-.54.437-1.108-1.051 1.633-1.547ZM22 20.661a1.49 1.49 0 1 0 2.979 0 1.49 1.49 0 0 0-2.979 0Zm.954.001a.488.488 0 1 1 .494-.486l-.001.007c.014-.001.026-.009.041-.009a.489.489 0 0 1 .976.002.487.487 0 0 1-.481.486.488.488 0 1 1-.495.488c-.015 0-.027-.008-.042-.009l.002.008a.489.489 0 0 1-.976 0 .49.49 0 0 1 .482-.487Z" fill="#CB9C2B"/><path d="M24.462 19.247c-.116.115-.057.362.131.549.188.188.434.247.549.131.116-.115.058-.361-.131-.549-.187-.188-.434-.247-.549-.131Zm-2.394.188a.255.255 0 0 0 .511 0 .255.255 0 1 0-.511 0Zm2.223 2.461a.255.255 0 0 0 .511 0 .255.255 0 1 0-.511 0ZM22 21.813a.255.255 0 0 0 .511 0 .255.255 0 1 0-.511 0Z" fill="#A1A1A1"/><path d="M29.11 17.083a.864.864 0 0 0 .316-.37c.299-.652-.072-1.701-.299-2.106-.277-.497-.107-.821.026-.976a.373.373 0 0 0-.131-.025c-.109 0-.215.053-.312.158-.292.311-.154.726.253 1.669.306.707.425 1.217.147 1.65Z" fill="#B4B4B5"/><path d="M28.551 14.043a.739.739 0 0 1 .633-.324c.219 0 .445.082.635.226l.28-.422c-.124-.103-.423-.317-.761-.317a.777.777 0 0 0-.258.044c-.383.137-.512.49-.529.793Z" fill="#B4B4B5"/><path d="m22.524 14.234-.329-.609.672.305-.343.304Z" fill="#CB9C2B"/><path d="M22.494 13.682a.247.247 0 1 1-.494.002.247.247 0 0 1 .494-.002Zm.575.145c.116.115.057.362-.131.549-.188.189-.434.247-.549.131-.116-.115-.058-.361.131-.549.187-.188.434-.248.549-.131Z" fill="#CB9C2B"/><path d="M28.779 19.562c-.379.359-.701-.105-1.306-.641-.553-.49-4.188-3.87-4.578-4.214-.391-.344-.028-.864.425-.442s4.801 4.062 5.127 4.359c.327.298.752.54.332.938Z" fill="#A1A1A1"/><path d="m22.992 14.558-.437.488.219.188-.219.187-.219-.187-.312.344v.343l.609.517.359-.235v-.282h.297v.267l-.156.015-.141.156-.015.36.54.437 1.108-1.051-1.633-1.547Zm7.199 4.614a1.49 1.49 0 1 0 0 2.979 1.49 1.49 0 0 0 0-2.979Zm1.016 1.977a.489.489 0 0 1-.976 0l.002-.008c-.015.001-.027.009-.042.009a.49.49 0 0 1-.976-.001c0-.267.215-.482.481-.487a.487.487 0 0 1 .007-.974c.269 0 .487.218.488.486.015 0 .027.008.041.009l-.001-.007a.488.488 0 1 1 .495.486.489.489 0 0 1 .481.487Z" fill="#A1A1A1"/><path d="M29.218 19.247c.116.115.057.362-.131.549-.188.188-.434.247-.549.131-.116-.115-.058-.361.131-.549.187-.188.434-.247.549-.131Zm2.394.188a.255.255 0 0 1-.511 0 .255.255 0 1 1 .511 0Zm-2.223 2.461a.255.255 0 0 1-.511 0 .255.255 0 1 1 .511 0Zm2.291-.083a.255.255 0 0 1-.511 0 .255.255 0 1 1 .511 0Z" fill="#CB9C2B"/><path d="M28.258 13.719c0 1.467-.639 1.427-1.428 1.427-.788 0-1.427.04-1.427-1.427s.639-3.052 1.427-3.052c.789 0 1.428 1.585 1.428 3.052Z" fill="#000"/><path d="M26.767 15.046c-.424 0-.72-.013-.923-.17-.232-.181-.34-.548-.34-1.157 0-1.49.656-2.952 1.326-2.952s1.328 1.462 1.328 2.952c0 1.327-.533 1.327-1.208 1.327h-.183Z" fill="#fff"/><path d="M27.576 14.042c-.5-.146-.419-.625-.746-.625s-.246.479-.746.625c-.499.146-.746-.083-.746-.083l.233.958s.419-.354 1.259-.354c.84 0 1.259.354 1.259.354l.233-.958c0-.001-.247.228-.746.083Z" fill="#CB9C2B"/><path d="M27.658 12.774c-.555-.153-.465-.658-.828-.658-.363 0-.274.505-.828.658-.554.153-.827-.087-.827-.087l.258 1.008s.466-.373 1.397-.373c.932 0 1.397.373 1.397.373l.258-1.008c0 .001-.273.241-.827.087Z" fill="#CB9C2B"/><path d="M27.527 11.445c-.467-.129-.392-.554-.697-.554-.306 0-.23.425-.697.554-.466.129-.696-.073-.696-.073l.218.849s.392-.236 1.176-.236c.784 0 1.176.236 1.176.236l.218-.849c-.001 0-.232.202-.698.073Zm-.875-.947c0 .148.08.269.178.269.098 0 .178-.12.178-.269 0-.149-.08-.269-.178-.269-.097 0-.178.12-.178.269Z" fill="#CB9C2B"/><path d="M26.381 10.206c0 .102.201.185.449.185s.449-.083.449-.185c0-.103-.201-.186-.449-.186-.248.001-.449.084-.449.186Z" fill="#CB9C2B"/><path d="M26.652 9.935c0 .103.08.186.178.186a.182.182 0 0 0 .178-.186.181.181 0 0 0-.178-.185.183.183 0 0 0-.178.185Z" fill="#CB9C2B"/><path d="M24.551 17.083a.864.864 0 0 1-.316-.37c-.299-.652.072-1.701.3-2.106.276-.497.106-.821-.027-.976a.373.373 0 0 1 .131-.025c.11 0 .215.053.312.158.292.311.154.726-.253 1.669-.306.707-.425 1.217-.147 1.65Z" fill="#B4B4B5"/><path d="M25.11 14.043a.74.74 0 0 0-.633-.324c-.219 0-.445.082-.635.226l-.28-.422c.124-.103.423-.317.761-.317.089 0 .175.015.258.044.382.137.511.49.529.793Z" fill="#B4B4B5"/><path d="M26.83 17c.2.154.246.75.246 1.453v5.484s.307.078.213.891c-.027.232-.484.188-.562 0-.078-.188-.04-.791.104-.875V18.5c0-.812-.136-1.127-.178-1.281-.043-.154.081-.294.177-.219Z" fill="#EC1C24"/><path d="M28.715 20.799c-.196-.137-.471-.482-.707-.812-.312-.438-.391-.736-.701-1.111-.31-.375-1.122-1.152-1.314-1.125-.076.011-.156.188-.083.25s.302.312.817.703c.516.391.594.828 1.024 1.453.397.577.74.971 1.049 1.024a1.515 1.515 0 0 1-.085-.382Z" fill="#EC1C24"/><path d="M27.7 17.551c-.183.175-.749.729-1.057 1.089-.308.36-.698 1.22-1.042 1.61-.221.25-.46.464-.642.596a1.48 1.48 0 0 1-.097.389c.248-.083.602-.311 1.046-.953.614-.891.911-1.547 1.208-1.797.297-.25.416-.324.583-.498.168-.175.185-.612.001-.436Z" fill="#EC1C24"/><path d="M26.464 18.281v5.781c-.331.266-.237.707-.175.924.062.217.603.216.687.108.084-.108.107-.844-.202-1.094v-5.359c0-.141-.31-.575-.31-.36Z" fill="#EC1C24"/><path d="M24.435 20.982c-.297.207-.552.564.112.83s1.543.625 2.283.625 2.123-.502 2.447-.728c.324-.226.464-.495-.052-.647-.271-.08-.312.125-.17.172.14.047.304.193-.052.323-.355.13-1.168.511-2.23.511s-2.062-.453-2.226-.511c-.164-.058-.209-.245-.093-.323.116-.078.114-.344-.019-.252Z" fill="#EC1C24"/><path d="M27.196 23.759a.211.211 0 1 1-.423 0 .211.211 0 0 1 .423 0Z" fill="#CB9C2B"/><path d="M26.84 23.899a.211.211 0 1 1-.422 0 .211.211 0 0 1 .422 0Z" fill="#CB9C2B"/></svg>